<svg xmlns="http://www.w3.org/2000/svg" xmlns:xlink="http://www.w3.org/1999/xlink" viewBox="0 0 16 22.5" version="1.1" x="0px" y="0px"><title>show-last-x-days</title><desc>Created with Sketch.</desc><g stroke="none" stroke-width="1" fill="none" fill-rule="evenodd"><path d="M15.414,3.414 L12.586,0.586 C12.211,0.211 11.702,0 11.172,0 L4.5,0 C3.119,0 2,1.119 2,2.5 L2,3 C2,3.553 2.447,4 3,4 C3.553,4 4,3.553 4,3 L4,2.5 C4,2.224 4.224,2 4.5,2 L10,2 L10,5 C10,5.55 10.45,6 11,6 L14,6 L14,15.5 C14,15.776 13.776,16 13.5,16 L12.986,16 C12.443,16 12.003,16.438 12,16.98 L12,17.01 C11.997,17.556 12.439,18 12.985,18 L13.5,18 C14.881,18 16,16.881 16,15.5 L16,4.828 C16,4.298 15.789,3.789 15.414,3.414 M6,6 C2.692,6 0,8.692 0,12 C0,15.308 2.692,18 6,18 C9.308,18 12,15.308 12,12 C12,8.692 9.308,6 6,6 M6,16 C3.794,16 2,14.205 2,12 C2,9.795 3.794,8 6,8 C8.206,8 10,9.795 10,12 C10,14.205 8.206,16 6,16 M7,11.586 L7,10 C7,9.447 6.553,9 6,9 C5.447,9 5,9.447 5,10 L5,12 C5,12.266 5.106,12.519 5.293,12.707 L6.293,13.707 C6.488,13.902 6.744,14 7,14 C7.256,14 7.512,13.902 7.707,13.707 C8.098,13.316 8.098,12.683 7.707,12.293 L7,11.586" fill="#000000"/></g><text x="0" y="33" fill="#000000" font-size="5px" font-weight="bold" font-family="'Helvetica Neue', Helvetica, Arial-Unicode, Arial, Sans-serif">Created by Kevin White</text><text x="0" y="38" fill="#000000" font-size="5px" font-weight="bold" font-family="'Helvetica Neue', Helvetica, Arial-Unicode, Arial, Sans-serif">from the Noun Project</text></svg>